<?xml version="1.0" encoding="utf-8"?>
<svg id="svg2" viewBox="8.303 8.391 266.888 48.075" xmlns="http://www.w3.org/2000/svg">
  <desc>Source: openclipart.org/detail/209545</desc>
  <defs/>
  <g id="SvgjsG1855" featurekey="v37d4h-0" transform="matrix(-0.220078, -0.004539, -0.004704, 0.228182, 206.505573, -11.537189)" fill="#ffffff" style="transform-origin: 50.01px 49.9644px;">
    <defs xmlns="http://www.w3.org/2000/svg"/>
    <title xmlns="http://www.w3.org/2000/svg"/>
    <path xmlns="http://www.w3.org/2000/svg" d="M85.32,62.07A68.22,68.22,0,0,1,79,66.23c-.54.31-1.08.62-1.63.92l-.2.11-.11,0,0,0h0l-.07,0-.1.05c-.14.08-.32.17-.52.26a14,14,0,0,1-1.32.52c-.48.17-1,.31-1.48.45a30.59,30.59,0,0,1-3.14.65c-1.08.18-2.19.31-3.33.41-2.27.2-4.65.28-7.16.32s-5.15.06-7.92.14c-1.38,0-2.8.11-4.25.21l-2.19.18c-.74.07-1.48.16-2.25.27a61,61,0,0,0-9,2,90.87,90.87,0,0,0-8.63,3c-1.39.57-2.76,1.16-4.12,1.77a39.89,39.89,0,0,0,9.58,7.16c2-1,4-2,6-2.83a48.67,48.67,0,0,1,7.14-2.39c.57-.14,1.17-.28,1.77-.4s1.2-.23,1.8-.33c1.2-.21,2.4-.38,3.59-.53,2.38-.31,4.73-.53,7-.79s4.53-.52,6.73-.9c1.09-.2,2.18-.42,3.26-.69a29.78,29.78,0,0,0,3.27-1c.56-.2,1.12-.43,1.7-.69l.89-.44c.3-.15.62-.33,1-.53a11.4,11.4,0,0,0,1.08-.7c.1-.06.2-.15.31-.22L77,72.1l.09-.07.07-.06.1-.09.19-.18L79,70.22q3.14-3,6.22-6.08c1-1.07,2.09-2.14,3.13-3.23.16-.52.3-1,.43-1.57Q87.07,60.78,85.32,62.07Z" style="fill-rule: evenodd; fill: rgb(60, 30, 110);"/>
    <path xmlns="http://www.w3.org/2000/svg" d="M80.24,49.11l-1.68-.06-.42,0-.21,0h-.16c-.19,0-.42,0-.65,0-1,0-2-.13-3.14-.26-2.21-.26-4.54-.66-6.94-1.12s-4.87-1-7.43-1.54-5.19-1.11-7.9-1.64c-1.36-.26-2.73-.52-4.13-.76l-2.12-.35-1.06-.17L43.3,43c-2.94-.4-5.92-.63-8.95-.74s-6.09-.09-9.19,0-6.25.33-9.43.61c-1.75.15-3.51.33-5.27.51a40.83,40.83,0,0,0-.46,6.1,41.64,41.64,0,0,0,.31,5c2.25-.38,4.44-.75,6.61-1.08,3-.48,6-.9,8.93-1.24s5.77-.59,8.56-.72,5.52-.19,8.15-.08l1,0,1,0,2,.12,3.92.31c2.59.23,5.13.49,7.62.73s4.93.48,7.33.65,4.74.28,7.12.25c1.2,0,2.39-.06,3.72-.21.34,0,.68-.08,1.06-.15l.14,0h.07l.06,0,.21-.06.43-.11,1.7-.46c2.26-.6,4.46-1.21,6.61-1.8l3.47-1v-.24c0-.24,0-.48,0-.72-1.06.11-2.15.19-3.24.24C84.63,49.15,82.47,49.17,80.24,49.11Z" style="fill-rule: evenodd; fill: rgb(60, 30, 110);"/>
    <path xmlns="http://www.w3.org/2000/svg" d="M79.08,74.93c-.5.46-1,.91-1.52,1.35l-.19.17-.08.07,0,0-.07.06-.09.08-.46.37-.58.4-.63.4c-.44.26-.9.51-1.37.75-.94.47-1.94.89-3,1.28s-2.08.73-3.17,1c-2.17.64-4.46,1.18-6.86,1.71s-4.92,1-7.51,1.58c-1.29.28-2.61.56-3.93.87-.67.15-1.34.3-2,.47l-1,.24-1,.27c-2.11.56-4.21,1.22-6.28,2a40.05,40.05,0,0,0,45.6-19Q82,72.23,79.08,74.93Z" style="fill-rule: evenodd; fill: rgb(60, 30, 110);"/>
    <path xmlns="http://www.w3.org/2000/svg" d="M80.29,26.58l.77.66.78.61,1.56,1.24c.63.5,1.25,1,1.87,1.55A40.08,40.08,0,0,0,58.79,10.48,218.06,218.06,0,0,1,77.17,24Z" style="fill-rule: evenodd; fill: rgb(60, 30, 110);"/>
    <path xmlns="http://www.w3.org/2000/svg" d="M82.65,33.53l-1.57-1.14c-.26-.18-.52-.38-.79-.56l-.8-.51c-1.07-.68-2.15-1.36-3.24-2A266.39,266.39,0,0,0,48.52,14.44q-4.16-1.92-8.41-3.69A39.84,39.84,0,0,0,27,16.82Q37.06,19.4,46.5,22.47a301,301,0,0,1,29,11.08c1.12.5,2.23,1,3.33,1.51l.83.38.82.32c.56.21,1.1.43,1.65.66q3.27,1.32,6.39,2.84l.19.1c-.16-.63-.34-1.24-.53-1.85Q85.44,35.56,82.65,33.53Z" style="fill-rule: evenodd; fill: rgb(60, 30, 110);"/>
    <path xmlns="http://www.w3.org/2000/svg" d="M87.76,43.12c-2.08-.66-4.21-1.39-6.38-2.17l-1.64-.59-.82-.3-.81-.24-3.37-1c-4.56-1.37-9.33-2.81-14.28-4.27-2.48-.72-5-1.46-7.58-2.19L49,31.26l-2-.54-1-.27-1-.26c-1.37-.32-2.72-.63-4.09-.93l-4.13-.89q-4.15-.87-8.45-1.69c-3.21-.61-6.47-1.21-9.78-1.77a39.76,39.76,0,0,0-5.79,10.22q7.17.66,14,1.38c3,.31,5.86.63,8.72,1l4.24.5c1.39.16,2.78.33,4.12.51l1,.13,1,.15,2,.32,4,.65L59.44,41c5.07.83,9.93,1.62,14.6,2.32l3.48.5.88.12c.28,0,.57,0,.85.05l1.69.1q3.36.21,6.56.52l2.23.23-.15-1.15C89,43.51,88.37,43.32,87.76,43.12Z" style="fill-rule: evenodd; fill: rgb(60, 30, 110);"/>
    <path xmlns="http://www.w3.org/2000/svg" d="M85.94,55.23a63.91,63.91,0,0,1-6.49,2.12l-1.68.43-.42.1-.11,0,0,0-.06,0h-.06l-.58.15c-.44.09-.92.17-1.43.24s-1,.12-1.56.16c-1.08.09-2.19.12-3.32.13s-2.31,0-3.48-.08c-2.38-.11-4.85-.31-7.41-.54s-5.23-.5-8-.72c-1.39-.12-2.79-.22-4.22-.31-.71,0-1.43-.09-2.16-.12l-1.09,0-1.13,0a75.12,75.12,0,0,0-9.21.4c-3.09.32-6.18.82-9.28,1.44S18,60,15,60.82l-3.08.85a40.21,40.21,0,0,0,4.88,10.11l1.76-.65c2.75-1,5.48-1.9,8.19-2.7s5.42-1.47,8.08-2a66.5,66.5,0,0,1,7.81-1.08l.95-.06,1,0c.65,0,1.3-.06,1.95-.09,1.29,0,2.57-.08,3.84-.1,2.54,0,5,0,7.45-.08s4.79-.08,7.12-.22c1.17-.07,2.32-.16,3.46-.29s2.3-.3,3.47-.52c.59-.12,1.18-.25,1.79-.4s1.23-.35,1.92-.59c.34-.12.7-.26,1.09-.43l.15-.07.16-.07.15-.07.11-.06.42-.24,1.66-1c2.21-1.3,4.38-2.61,6.5-3.95q2-1.24,3.91-2.51l.12-1C88.53,54.17,87.25,54.72,85.94,55.23Z" style="fill-rule: evenodd; fill: rgb(60, 30, 110);"/>
  </g>
  <g id="SvgjsG1856" featurekey="UxBHKT-0" transform="matrix(3.108727, 0, 0, 3.108727, 5.937453, -6.645251)" fill="#ffffff">
    <path d="M 5.108 16.052 C 5.108 16.518 5.188 16.908 5.348 17.222 C 5.508 17.535 5.882 17.692 6.468 17.692 C 6.735 17.692 6.988 17.678 7.228 17.652 L 7.228 20.172 C 6.748 20.225 6.302 20.252 5.888 20.252 C 5.035 20.252 4.345 20.182 3.818 20.042 C 3.292 19.902 2.882 19.632 2.588 19.232 C 2.295 18.832 2.148 18.258 2.148 17.512 L 2.148 11.412 L 0.808 11.412 L 0.808 8.792 L 2.148 8.792 L 2.148 5.852 L 5.108 5.852 L 5.108 8.792 L 7.308 8.792 L 7.308 11.412 L 5.108 11.412 L 5.108 16.052 L 5.108 16.052 Z M 12.418 19.712 C 11.505 19.352 10.722 18.742 10.068 17.882 C 9.415 17.022 9.088 15.898 9.088 14.512 C 9.088 13.125 9.418 12.005 10.078 11.152 C 10.738 10.298 11.528 9.692 12.448 9.332 C 13.368 8.972 14.242 8.792 15.068 8.792 C 16.028 8.792 16.942 9.005 17.808 9.432 C 18.675 9.858 19.385 10.485 19.938 11.312 C 20.492 12.138 20.782 13.118 20.808 14.252 C 20.808 14.598 20.802 14.898 20.788 15.152 C 20.775 15.405 20.762 15.565 20.748 15.632 L 12.068 15.632 C 12.228 16.405 12.628 16.932 13.268 17.212 C 13.908 17.492 14.508 17.632 15.068 17.632 C 15.788 17.632 16.362 17.502 16.788 17.242 C 17.215 16.982 17.582 16.685 17.888 16.352 L 20.208 17.692 C 18.955 19.398 17.242 20.252 15.068 20.252 C 14.215 20.252 13.332 20.072 12.418 19.712 L 12.418 19.712 Z M 13.028 12.022 C 12.508 12.428 12.215 12.925 12.148 13.512 L 17.648 13.512 C 17.608 13.165 17.475 12.832 17.248 12.512 C 17.022 12.192 16.718 11.928 16.338 11.722 C 15.958 11.515 15.528 11.412 15.048 11.412 C 14.222 11.412 13.548 11.615 13.028 12.022 Z M 23.248 4.852 L 26.248 4.852 L 26.248 19.972 L 23.248 19.972 L 23.248 4.852 Z M 31.918 19.712 C 31.005 19.352 30.222 18.742 29.568 17.882 C 28.915 17.022 28.588 15.898 28.588 14.512 C 28.588 13.125 28.918 12.005 29.578 11.152 C 30.238 10.298 31.028 9.692 31.948 9.332 C 32.868 8.972 33.742 8.792 34.568 8.792 C 35.528 8.792 36.442 9.005 37.308 9.432 C 38.175 9.858 38.885 10.485 39.438 11.312 C 39.992 12.138 40.282 13.118 40.308 14.252 C 40.308 14.598 40.302 14.898 40.288 15.152 C 40.275 15.405 40.262 15.565 40.248 15.632 L 31.568 15.632 C 31.728 16.405 32.128 16.932 32.768 17.212 C 33.408 17.492 34.008 17.632 34.568 17.632 C 35.288 17.632 35.862 17.502 36.288 17.242 C 36.715 16.982 37.082 16.685 37.388 16.352 L 39.708 17.692 C 38.455 19.398 36.742 20.252 34.568 20.252 C 33.715 20.252 32.832 20.072 31.918 19.712 L 31.918 19.712 Z M 32.528 12.022 C 32.008 12.428 31.715 12.925 31.648 13.512 L 37.148 13.512 C 37.108 13.165 36.975 12.832 36.748 12.512 C 36.522 12.192 36.218 11.928 35.838 11.722 C 35.458 11.515 35.028 11.412 34.548 11.412 C 33.722 11.412 33.048 11.615 32.528 12.022 L 32.528 12.022 Z M 45.208 19.482 C 44.288 18.968 43.558 18.272 43.018 17.392 C 42.478 16.512 42.208 15.552 42.208 14.512 C 42.208 13.472 42.478 12.515 43.018 11.642 C 43.558 10.768 44.285 10.075 45.198 9.562 C 46.112 9.048 47.108 8.792 48.188 8.792 C 49.348 8.792 50.398 9.068 51.338 9.622 C 52.278 10.175 53.028 10.965 53.588 11.992 L 50.888 13.052 C 50.568 12.505 50.175 12.095 49.708 11.822 C 49.242 11.548 48.735 11.412 48.188 11.412 C 47.322 11.412 46.605 11.705 46.038 12.292 C 45.472 12.878 45.188 13.618 45.188 14.512 C 45.188 15.405 45.475 16.145 46.048 16.732 C 46.622 17.318 47.342 17.612 48.208 17.612 C 49.408 17.612 50.335 17.078 50.988 16.012 L 53.528 17.012 C 52.475 19.172 50.702 20.252 48.208 20.252 C 47.128 20.252 46.128 19.995 45.208 19.482 L 45.208 19.482 Z M 55.748 4.852 L 58.748 4.852 L 58.748 19.972 L 55.748 19.972 L 55.748 4.852 Z M 61.588 15.512 L 61.588 9.012 L 64.608 9.012 L 64.608 15.512 C 64.608 16.298 64.805 16.862 65.198 17.202 C 65.592 17.542 66.108 17.712 66.748 17.712 C 67.308 17.712 67.808 17.495 68.248 17.062 C 68.688 16.628 68.888 15.885 68.848 14.832 L 68.848 9.012 L 71.848 9.012 L 71.848 19.972 L 68.848 19.972 L 68.848 19.032 C 68.488 19.405 68.052 19.695 67.538 19.902 C 67.025 20.108 66.482 20.212 65.908 20.212 C 63.028 20.212 61.588 18.645 61.588 15.512 L 61.588 15.512 Z M 74.768 19.972 L 74.768 4.852 L 77.728 4.852 L 77.728 10.112 C 78.035 9.712 78.478 9.382 79.058 9.122 C 79.638 8.862 80.308 8.732 81.068 8.732 C 82.202 8.732 83.185 8.985 84.018 9.492 C 84.852 9.998 85.488 10.688 85.928 11.562 C 86.368 12.435 86.588 13.405 86.588 14.472 C 86.588 15.538 86.368 16.508 85.928 17.382 C 85.488 18.255 84.852 18.945 84.018 19.452 C 83.185 19.958 82.202 20.212 81.068 20.212 C 80.335 20.212 79.658 20.075 79.038 19.802 C 78.418 19.528 77.982 19.218 77.728 18.872 L 77.728 19.972 L 74.768 19.972 L 74.768 19.972 Z M 78.418 16.742 C 78.958 17.295 79.695 17.572 80.628 17.572 C 81.535 17.572 82.265 17.278 82.818 16.692 C 83.372 16.105 83.648 15.365 83.648 14.472 C 83.648 13.552 83.378 12.802 82.838 12.222 C 82.298 11.642 81.562 11.352 80.628 11.352 C 79.708 11.352 78.975 11.642 78.428 12.222 C 77.882 12.802 77.608 13.552 77.608 14.472 C 77.608 15.432 77.878 16.188 78.418 16.742 L 78.418 16.742 Z" style="fill: rgb(60, 30, 110);"/>
  </g>
</svg>